<svg width="32" height="32" viewBox="0 0 32 32" fill="none" xmlns="http://www.w3.org/2000/svg">
<circle opacity="0.6" cx="16" cy="16" r="16" fill="#0B253F"/>
<path d="M24.8304 11.6273C24.5512 11.0012 24.1485 10.4338 23.6449 9.95692C23.1409 9.47861 22.5468 9.09851 21.8947 8.83728C21.2185 8.56532 20.4933 8.42612 19.7611 8.42775C18.7339 8.42775 17.7317 8.70009 16.8608 9.21453C16.6524 9.33759 16.4545 9.47275 16.267 9.62002C16.0794 9.47275 15.8815 9.33759 15.6731 9.21453C14.8022 8.70009 13.8 8.42775 12.7728 8.42775C12.0331 8.42775 11.3164 8.56493 10.6392 8.83728C9.98499 9.09954 9.39534 9.47679 8.88903 9.95692C8.3848 10.4333 7.98201 11.0008 7.70348 11.6273C7.41386 12.2789 7.26593 12.9709 7.26593 13.683C7.26593 14.3548 7.40761 15.0548 7.6889 15.767C7.92434 16.3621 8.26188 16.9794 8.69318 17.6028C9.37659 18.5893 10.3163 19.6181 11.4831 20.6611C13.4166 22.39 15.3314 23.5843 15.4127 23.6327L15.9065 23.9394C16.1253 24.0745 16.4066 24.0745 16.6253 23.9394L17.1191 23.6327C17.2004 23.5823 19.1131 22.39 21.0488 20.6611C22.2156 19.6181 23.1553 18.5893 23.8387 17.6028C24.27 16.9794 24.6096 16.3621 24.8429 15.767C25.1242 15.0548 25.2659 14.3548 25.2659 13.683C25.268 12.9709 25.1201 12.2789 24.8304 11.6273Z" fill="white"/>
</svg>
